<svg xmlns="http://www.w3.org/2000/svg" width="200" height="55.362" viewBox="0 0 200 55.362"><g transform="translate(-76 -243)"><g transform="translate(76 243)"><g transform="translate(0 0)"><ellipse cx="5.822" cy="5.826" rx="5.822" ry="5.826" transform="translate(6.656 43.709)" fill="#0070d0"/><ellipse cx="5.822" cy="5.826" rx="5.822" ry="5.826" transform="translate(0 21.871)" fill="#0070d0"/><ellipse cx="5.822" cy="5.826" rx="5.822" ry="5.826" transform="translate(6.689)" fill="#0070d0"/><ellipse cx="23.287" cy="23.14" rx="23.287" ry="23.14" transform="translate(20.717 4.666)" fill="#0070d0"/><path d="M380.042,380.59H365.186v3.7h10.279a10.672,10.672,0,0,1-1.265,3.3,10.492,10.492,0,0,1-2.208,2.655A9.932,9.932,0,0,1,369.041,392a9.786,9.786,0,0,1-7.388-.2,10.188,10.188,0,0,1-3.212-2.242,10.8,10.8,0,0,1-2.168-3.3,10.624,10.624,0,0,1,0-8.1,10.794,10.794,0,0,1,2.168-3.3,10.187,10.187,0,0,1,3.212-2.242,9.525,9.525,0,0,1,3.935-.826,9.382,9.382,0,0,1,4.918,1.338,10.219,10.219,0,0,1,3.553,3.54H379a15.093,15.093,0,0,0-2.188-3.56,14.771,14.771,0,0,0-3.072-2.813,14.242,14.242,0,0,0-3.794-1.829,14.463,14.463,0,0,0-4.356-.649,14.31,14.31,0,0,0-5.681,1.141,14.761,14.761,0,0,0-4.638,3.088,14.562,14.562,0,0,0-3.112,4.563,14.3,14.3,0,0,0,0,11.211,14.555,14.555,0,0,0,3.112,4.563,14.75,14.75,0,0,0,4.638,3.088,14.8,14.8,0,0,0,10.9.2,14.636,14.636,0,0,0,4.356-2.6,14.484,14.484,0,0,0,3.172-3.914,13.751,13.751,0,0,0,1.626-4.858q.08-.511.12-1.023t.04-1.062q0-.393-.02-.787t-.06-.826Z" transform="translate(-321.214 -354.282)" fill="#fff"/></g><path d="M27.831-179.655q.338-.056.7-.084t.731-.028q.366,0,.731.028a6.635,6.635,0,0,1,.675.084v9.872a9.094,9.094,0,0,1-1.294.436,11.875,11.875,0,0,1-1.463.281q-.759.1-1.519.155t-1.434.056a11.056,11.056,0,0,1-4.05-.7,8.081,8.081,0,0,1-3.038-2.039,9.067,9.067,0,0,1-1.9-3.249,13.218,13.218,0,0,1-.661-4.331,13.341,13.341,0,0,1,.675-4.374,9.5,9.5,0,0,1,1.927-3.333,8.548,8.548,0,0,1,2.981-2.124,9.6,9.6,0,0,1,3.839-.745,16.044,16.044,0,0,1,2.785.211,11.793,11.793,0,0,1,2.138.577,5.2,5.2,0,0,1-.239,1.2q-.183.548-.436,1.167-.788-.253-1.7-.45a11.145,11.145,0,0,0-2.292-.2,6.71,6.71,0,0,0-2.714.534,5.6,5.6,0,0,0-2.081,1.561,7.385,7.385,0,0,0-1.336,2.531,11.375,11.375,0,0,0-.478,3.446,10.745,10.745,0,0,0,.492,3.445,6.643,6.643,0,0,0,1.392,2.419,5.542,5.542,0,0,0,2.124,1.434,7.6,7.6,0,0,0,2.714.464,11.051,11.051,0,0,0,1.575-.1,8.489,8.489,0,0,0,1.153-.239ZM48.2-173.861H40.517l-1.378,4.669q-.366.056-.731.084t-.731.028q-.394,0-.773-.028a6.6,6.6,0,0,1-.689-.084l6.582-20.223q.366-.056.788-.084t.872-.028q.394,0,.816.028t.816.084l6.553,20.223q-.338.056-.759.084t-.816.028q-.366,0-.745-.028t-.717-.084Zm-6.919-2.5h6.16l-3.094-10.322Zm17.3-13.051q.956-.113,2.306-.211t2.644-.1q5.316,0,7.946,2.7t2.63,7.763q0,5.288-2.686,7.847t-8,2.56q-1.322,0-2.616-.1t-2.222-.239Zm2.869,17.86q.394.056.97.1t1.224.042a11.262,11.262,0,0,0,3.024-.38,5.679,5.679,0,0,0,2.349-1.28,5.812,5.812,0,0,0,1.519-2.433,11.8,11.8,0,0,0,.534-3.839,10.713,10.713,0,0,0-.534-3.6,6.279,6.279,0,0,0-1.5-2.433,5.731,5.731,0,0,0-2.32-1.364,9.962,9.962,0,0,0-2.981-.422q-.534,0-1.167.014a7.416,7.416,0,0,0-1.111.1Zm19.717-17.86q.338-.056.7-.084t.731-.028q.366,0,.731.028t.7.084v20.223q-.338.056-.689.084t-.745.028q-.366,0-.745-.028a6.6,6.6,0,0,1-.689-.084Zm14.26,2.5H90.16a5.492,5.492,0,0,1-.084-.619q-.028-.338-.028-.647t.028-.633a5.531,5.531,0,0,1,.084-.6h13.388a5.6,5.6,0,0,1,.084.591q.028.309.028.619t-.028.661a5.476,5.476,0,0,1-.084.633h-5.26v17.72a10.907,10.907,0,0,1-1.406.084,11.826,11.826,0,0,1-1.463-.084Zm14.26-2.5h11.11a8.375,8.375,0,0,1,.084,1.238q0,.309-.014.647a4.016,4.016,0,0,1-.07.619h-8.241v5.794h6.582a5.529,5.529,0,0,1,.084.6q.028.323.028.633t-.028.647a5.489,5.489,0,0,1-.084.619h-6.582v6.919h8.466a8.375,8.375,0,0,1,.084,1.238q0,.309-.014.647a4.017,4.017,0,0,1-.07.619H109.679Zm21.742,9.957,6.5-9.957q.394-.056.773-.084t.689-.028q.366,0,.788.028t.872.084l-6.413,9.7,7.228,10.519q-.45.056-.886.084t-.83.028q-.338,0-.731-.028t-.816-.084Zm-3.713-9.957q.338-.056.7-.084t.731-.028q.366,0,.731.028t.7.084v20.223q-.338.056-.7.084t-.731.028q-.394,0-.759-.028a6.626,6.626,0,0,1-.675-.084Z" transform="translate(57.85 204.16)" fill="#3c3c3c"/><path d="M-1012.933-38.661a1.369,1.369,0,0,1-.124-.414,1.609,1.609,0,0,1-.471.354,1.509,1.509,0,0,1-.693.145,1.838,1.838,0,0,1-.62-.1,1.537,1.537,0,0,1-.5-.286,1.316,1.316,0,0,1-.33-.437,1.292,1.292,0,0,1-.119-.556,1.476,1.476,0,0,1,.134-.644,1.257,1.257,0,0,1,.4-.477,1.936,1.936,0,0,1,.667-.3,3.751,3.751,0,0,1,.927-.1h.55v-.264a.76.76,0,0,0-.164-.512.645.645,0,0,0-.518-.192.735.735,0,0,0-.488.149.507.507,0,0,0-.177.409h-1.232a1.22,1.22,0,0,1,.139-.567,1.42,1.42,0,0,1,.394-.469,1.98,1.98,0,0,1,.618-.318,2.622,2.622,0,0,1,.81-.117,2.571,2.571,0,0,1,.742.1,1.677,1.677,0,0,1,.588.3,1.388,1.388,0,0,1,.386.507,1.7,1.7,0,0,1,.138.71v1.953q0,.2.013.352t.034.281a1.445,1.445,0,0,0,.055.226,1.348,1.348,0,0,0,.081.19v.072Zm-1.019-.857a1.059,1.059,0,0,0,.292-.038,1.058,1.058,0,0,0,.241-.1.857.857,0,0,0,.185-.143.771.771,0,0,0,.126-.166v-.793h-.507a1.488,1.488,0,0,0-.422.053.815.815,0,0,0-.294.149.6.6,0,0,0-.171.226.715.715,0,0,0-.055.284.493.493,0,0,0,.162.379A.63.63,0,0,0-1013.952-39.518Zm69.252-.051a.941.941,0,0,0,.311-.049.729.729,0,0,0,.243-.139.631.631,0,0,0,.16-.215.719.719,0,0,0,.062-.284h1.155a1.578,1.578,0,0,1-.154.676,1.659,1.659,0,0,1-.405.533,1.843,1.843,0,0,1-.6.347,2.216,2.216,0,0,1-.748.124,2.259,2.259,0,0,1-.938-.181,1.854,1.854,0,0,1-.665-.495,2.094,2.094,0,0,1-.4-.738,3.058,3.058,0,0,1-.132-.914v-.119a3.079,3.079,0,0,1,.132-.917,2.113,2.113,0,0,1,.4-.742,1.848,1.848,0,0,1,.663-.5,2.232,2.232,0,0,1,.931-.181,2.3,2.3,0,0,1,.778.126,1.723,1.723,0,0,1,.6.36,1.633,1.633,0,0,1,.392.569,1.969,1.969,0,0,1,.145.748h-1.155a.991.991,0,0,0-.057-.313.769.769,0,0,0-.151-.256.706.706,0,0,0-.243-.173.816.816,0,0,0-.333-.064.792.792,0,0,0-.439.111.766.766,0,0,0-.266.3,1.324,1.324,0,0,0-.13.428,3.622,3.622,0,0,0-.034.5v.119a3.654,3.654,0,0,0,.034.507,1.3,1.3,0,0,0,.13.426.754.754,0,0,0,.266.292A.822.822,0,0,0-944.7-39.569Zm3.351-1.441a2.908,2.908,0,0,1,.145-.934,2.135,2.135,0,0,1,.422-.744,1.943,1.943,0,0,1,.684-.492,2.281,2.281,0,0,1,.927-.179,2.309,2.309,0,0,1,.934.179,1.96,1.96,0,0,1,.688.492,2.119,2.119,0,0,1,.424.744,2.908,2.908,0,0,1,.145.934v.09a2.9,2.9,0,0,1-.145.936,2.122,2.122,0,0,1-.424.742,1.947,1.947,0,0,1-.684.49,2.3,2.3,0,0,1-.929.177,2.318,2.318,0,0,1-.932-.177,1.942,1.942,0,0,1-.686-.49,2.12,2.12,0,0,1-.424-.742,2.9,2.9,0,0,1-.145-.936Zm1.232.09a2.61,2.61,0,0,0,.051.529,1.3,1.3,0,0,0,.164.428.85.85,0,0,0,.294.288.865.865,0,0,0,.446.107.847.847,0,0,0,.437-.107.869.869,0,0,0,.3-.288,1.273,1.273,0,0,0,.166-.428,2.61,2.61,0,0,0,.051-.529v-.09a2.535,2.535,0,0,0-.051-.518,1.322,1.322,0,0,0-.166-.431.87.87,0,0,0-.3-.294.855.855,0,0,0-.443-.109.835.835,0,0,0-.437.109.857.857,0,0,0-.294.294,1.353,1.353,0,0,0-.164.431,2.534,2.534,0,0,0-.051.518Zm5.96-2.353.038.516a1.638,1.638,0,0,1,.561-.441,1.737,1.737,0,0,1,.765-.16,1.554,1.554,0,0,1,.731.166,1.12,1.12,0,0,1,.492.537,1.634,1.634,0,0,1,.569-.516,1.678,1.678,0,0,1,.816-.188,1.887,1.887,0,0,1,.612.094,1.126,1.126,0,0,1,.469.3,1.4,1.4,0,0,1,.3.544,2.783,2.783,0,0,1,.1.821v2.937h-1.236V-41.6a1.235,1.235,0,0,0-.049-.379.538.538,0,0,0-.139-.232.486.486,0,0,0-.217-.115,1.2,1.2,0,0,0-.29-.032.778.778,0,0,0-.478.143.877.877,0,0,0-.29.386c0,.014,0,.03,0,.047s0,.033,0,.047v3.074h-1.232V-41.59a1.285,1.285,0,0,0-.047-.379.541.541,0,0,0-.136-.234.494.494,0,0,0-.22-.119,1.153,1.153,0,0,0-.292-.034.865.865,0,0,0-.46.115.83.83,0,0,0-.3.32v3.261h-1.232v-4.613Zm11.464,2.349a3.546,3.546,0,0,1-.117.934,2.288,2.288,0,0,1-.343.744,1.635,1.635,0,0,1-.561.492,1.606,1.606,0,0,1-.77.179,1.536,1.536,0,0,1-.646-.128,1.447,1.447,0,0,1-.484-.358v2.174h-1.232v-6.386h1.143l.043.452a1.524,1.524,0,0,1,.5-.4,1.5,1.5,0,0,1,.672-.141,1.713,1.713,0,0,1,.776.168,1.545,1.545,0,0,1,.563.477,2.235,2.235,0,0,1,.343.742,3.658,3.658,0,0,1,.117.957Zm-1.232-.09a2.7,2.7,0,0,0-.049-.531,1.363,1.363,0,0,0-.156-.426.8.8,0,0,0-.275-.284.779.779,0,0,0-.411-.1.977.977,0,0,0-.5.113.756.756,0,0,0-.3.33v1.889a.817.817,0,0,0,.3.335.94.94,0,0,0,.505.122.754.754,0,0,0,.411-.107.806.806,0,0,0,.273-.292,1.414,1.414,0,0,0,.151-.433,2.823,2.823,0,0,0,.047-.524Zm5.576,2.353a1.369,1.369,0,0,1-.124-.414,1.609,1.609,0,0,1-.471.354,1.509,1.509,0,0,1-.693.145,1.839,1.839,0,0,1-.62-.1,1.535,1.535,0,0,1-.5-.286,1.311,1.311,0,0,1-.33-.437,1.288,1.288,0,0,1-.12-.556,1.478,1.478,0,0,1,.134-.644,1.258,1.258,0,0,1,.4-.477,1.937,1.937,0,0,1,.667-.3,3.752,3.752,0,0,1,.927-.1h.55v-.264a.76.76,0,0,0-.164-.512.646.646,0,0,0-.518-.192.733.733,0,0,0-.488.149.507.507,0,0,0-.177.409H-921.1a1.22,1.22,0,0,1,.139-.567,1.42,1.42,0,0,1,.394-.469,1.981,1.981,0,0,1,.618-.318,2.625,2.625,0,0,1,.81-.117,2.572,2.572,0,0,1,.742.1,1.676,1.676,0,0,1,.588.3,1.386,1.386,0,0,1,.386.507,1.7,1.7,0,0,1,.139.71v1.953q0,.2.013.352t.034.281a1.459,1.459,0,0,0,.055.226,1.348,1.348,0,0,0,.081.19v.072Zm-1.019-.857a1.059,1.059,0,0,0,.292-.038,1.055,1.055,0,0,0,.241-.1.858.858,0,0,0,.185-.143.775.775,0,0,0,.126-.166v-.793h-.507a1.486,1.486,0,0,0-.422.053.819.819,0,0,0-.294.149.6.6,0,0,0-.171.226.717.717,0,0,0-.055.284.493.493,0,0,0,.162.379A.629.629,0,0,0-919.367-39.518Zm5.069-3.756.038.533a1.617,1.617,0,0,1,.575-.458,1.728,1.728,0,0,1,.75-.16,1.84,1.84,0,0,1,.6.092,1.1,1.1,0,0,1,.46.3,1.41,1.41,0,0,1,.3.546,2.826,2.826,0,0,1,.1.827v2.933h-1.232V-41.6a1.157,1.157,0,0,0-.049-.367.536.536,0,0,0-.143-.23.544.544,0,0,0-.23-.122,1.235,1.235,0,0,0-.316-.036.874.874,0,0,0-.467.119.914.914,0,0,0-.313.324v3.253h-1.232v-4.613Zm6.386,2.869.853-2.869h1.322l-1.846,5.3a3.982,3.982,0,0,1-.164.379,1.5,1.5,0,0,1-.271.382,1.4,1.4,0,0,1-.422.294,1.459,1.459,0,0,1-.618.117q-.085,0-.154-.006l-.132-.015a1.218,1.218,0,0,1-.126-.023q-.062-.015-.134-.036v-.934l.1,0,.092,0a1.526,1.526,0,0,0,.313-.028.648.648,0,0,0,.224-.09.564.564,0,0,0,.158-.156,1,1,0,0,0,.111-.222l.132-.345-1.616-4.626h1.326Z" transform="translate(1105.737 84.571)" fill="#939494"/><path d="M-935.839-56.228a3.561,3.561,0,0,1,.121-.959,2.269,2.269,0,0,1,.352-.746,1.592,1.592,0,0,1,.567-.482,1.675,1.675,0,0,1,.767-.171,1.435,1.435,0,0,1,.629.132,1.506,1.506,0,0,1,.484.371v-2.353h1.236v6.548h-1.113l-.06-.49a1.582,1.582,0,0,1-.507.424,1.445,1.445,0,0,1-.678.151,1.6,1.6,0,0,1-.761-.177,1.661,1.661,0,0,1-.565-.488,2.276,2.276,0,0,1-.352-.74,3.407,3.407,0,0,1-.121-.932Zm1.232.09a2.759,2.759,0,0,0,.047.524,1.36,1.36,0,0,0,.151.424.8.8,0,0,0,.273.286.766.766,0,0,0,.411.1.9.9,0,0,0,.5-.128.862.862,0,0,0,.309-.354V-57.1a.842.842,0,0,0-.309-.356.894.894,0,0,0-.488-.126.777.777,0,0,0-.413.1.786.786,0,0,0-.275.288,1.427,1.427,0,0,0-.153.431,2.737,2.737,0,0,0-.049.533Zm6.088,2.251h-1.236V-58.5h1.236Zm-1.309-5.807a.607.607,0,0,1,.185-.456.7.7,0,0,1,.505-.179.825.825,0,0,1,.286.047.62.62,0,0,1,.218.132.593.593,0,0,1,.139.2.652.652,0,0,1,.049.254.664.664,0,0,1-.049.258.593.593,0,0,1-.139.2.62.62,0,0,1-.218.132.825.825,0,0,1-.286.047.825.825,0,0,1-.286-.047.62.62,0,0,1-.218-.132.593.593,0,0,1-.139-.2A.664.664,0,0,1-929.828-59.694Zm5.73,4.532a.412.412,0,0,0-.038-.179.392.392,0,0,0-.145-.151,1.334,1.334,0,0,0-.29-.134,3.812,3.812,0,0,0-.473-.124,4.492,4.492,0,0,1-.654-.192,2.02,2.02,0,0,1-.52-.286,1.276,1.276,0,0,1-.343-.4,1.075,1.075,0,0,1-.124-.524,1.249,1.249,0,0,1,.126-.55,1.378,1.378,0,0,1,.362-.458,1.766,1.766,0,0,1,.58-.313,2.427,2.427,0,0,1,.774-.115,2.721,2.721,0,0,1,.806.111,1.839,1.839,0,0,1,.608.309,1.37,1.37,0,0,1,.384.471,1.332,1.332,0,0,1,.134.6h-1.232a.6.6,0,0,0-.171-.437.722.722,0,0,0-.533-.173.738.738,0,0,0-.482.141.444.444,0,0,0-.171.358.36.36,0,0,0,.045.181.439.439,0,0,0,.145.145,1.159,1.159,0,0,0,.264.122,3.221,3.221,0,0,0,.4.1,5.493,5.493,0,0,1,.695.179,2.025,2.025,0,0,1,.552.275,1.238,1.238,0,0,1,.365.409,1.2,1.2,0,0,1,.132.582,1.19,1.19,0,0,1-.136.565,1.318,1.318,0,0,1-.39.446,1.959,1.959,0,0,1-.612.294,2.806,2.806,0,0,1-.8.107,2.475,2.475,0,0,1-.857-.136,1.973,1.973,0,0,1-.625-.358,1.492,1.492,0,0,1-.382-.5,1.323,1.323,0,0,1-.128-.558h1.168a.715.715,0,0,0,.079.309.607.607,0,0,0,.185.211.8.8,0,0,0,.266.119,1.288,1.288,0,0,0,.318.038.892.892,0,0,0,.535-.134A.418.418,0,0,0-924.1-55.162Zm5.491-2.183q-.094-.013-.219-.023t-.224-.011a1.226,1.226,0,0,0-.586.122.748.748,0,0,0-.33.352v3.018H-921.2V-58.5h1.164l.034.55a1.382,1.382,0,0,1,.431-.467,1.06,1.06,0,0,1,.6-.168,1.336,1.336,0,0,1,.207.017,1.277,1.277,0,0,1,.177.038Zm4.263,2.989a1.49,1.49,0,0,1-.529.409,1.722,1.722,0,0,1-.733.145,1.918,1.918,0,0,1-.622-.1,1.216,1.216,0,0,1-.484-.3,1.387,1.387,0,0,1-.313-.533,2.444,2.444,0,0,1-.111-.782V-58.5h1.232v2.993a.977.977,0,0,0,.049.328.557.557,0,0,0,.136.22.532.532,0,0,0,.207.121.861.861,0,0,0,.264.038,1.116,1.116,0,0,0,.541-.115.788.788,0,0,0,.32-.32V-58.5h1.236v4.613h-1.16Zm7.184-1.795a3.551,3.551,0,0,1-.117.934,2.288,2.288,0,0,1-.343.744,1.635,1.635,0,0,1-.561.492,1.606,1.606,0,0,1-.77.179,1.537,1.537,0,0,1-.646-.128,1.446,1.446,0,0,1-.484-.358v2.174h-1.232V-58.5h1.143l.043.452a1.526,1.526,0,0,1,.5-.4,1.5,1.5,0,0,1,.672-.141,1.713,1.713,0,0,1,.776.168,1.544,1.544,0,0,1,.563.477,2.235,2.235,0,0,1,.343.742,3.663,3.663,0,0,1,.117.957Zm-1.232-.09a2.7,2.7,0,0,0-.049-.531,1.36,1.36,0,0,0-.156-.426.8.8,0,0,0-.275-.284.779.779,0,0,0-.411-.1.977.977,0,0,0-.5.113.755.755,0,0,0-.3.33v1.889a.816.816,0,0,0,.3.335.939.939,0,0,0,.505.121.754.754,0,0,0,.411-.107.807.807,0,0,0,.273-.292,1.417,1.417,0,0,0,.151-.433,2.823,2.823,0,0,0,.047-.524Zm4.378-3.394V-58.5h.789v.9h-.789v2.3a.8.8,0,0,0,.03.239.323.323,0,0,0,.089.147.319.319,0,0,0,.147.072.975.975,0,0,0,.207.019q.111,0,.2-.009t.16-.021v.934a2.831,2.831,0,0,1-.335.079,2.384,2.384,0,0,1-.411.032,1.857,1.857,0,0,1-.546-.075,1.046,1.046,0,0,1-.416-.237,1.061,1.061,0,0,1-.266-.422,1.855,1.855,0,0,1-.094-.627V-57.6h-.673v-.9h.673v-1.134Zm2.447,5.142a.693.693,0,0,1,.049-.262.59.59,0,0,1,.141-.209.681.681,0,0,1,.219-.139.764.764,0,0,1,.286-.051.78.78,0,0,1,.288.051.676.676,0,0,1,.222.139.59.59,0,0,1,.141.209.7.7,0,0,1,.049.262.68.68,0,0,1-.049.26.594.594,0,0,1-.141.207.648.648,0,0,1-.222.136.81.81,0,0,1-.288.049.793.793,0,0,1-.286-.049.653.653,0,0,1-.219-.136.594.594,0,0,1-.141-.207A.677.677,0,0,1-901.566-54.492Zm5.3-.3a.94.94,0,0,0,.311-.049.727.727,0,0,0,.243-.139.629.629,0,0,0,.16-.215.719.719,0,0,0,.062-.284h1.155a1.578,1.578,0,0,1-.153.676,1.659,1.659,0,0,1-.405.533,1.844,1.844,0,0,1-.6.347,2.216,2.216,0,0,1-.748.124,2.259,2.259,0,0,1-.938-.181,1.854,1.854,0,0,1-.665-.495,2.1,2.1,0,0,1-.4-.738,3.058,3.058,0,0,1-.132-.914v-.119a3.079,3.079,0,0,1,.132-.917,2.117,2.117,0,0,1,.4-.742,1.848,1.848,0,0,1,.663-.5,2.233,2.233,0,0,1,.932-.181,2.3,2.3,0,0,1,.778.126,1.725,1.725,0,0,1,.6.36,1.631,1.631,0,0,1,.392.569,1.967,1.967,0,0,1,.145.748h-1.155a.984.984,0,0,0-.058-.313.768.768,0,0,0-.151-.256.708.708,0,0,0-.243-.173.816.816,0,0,0-.333-.064.792.792,0,0,0-.439.111.767.767,0,0,0-.266.3,1.33,1.33,0,0,0-.13.428,3.6,3.6,0,0,0-.034.5v.119a3.635,3.635,0,0,0,.034.507,1.307,1.307,0,0,0,.13.426.755.755,0,0,0,.266.292A.822.822,0,0,0-896.267-54.8Zm3.351-1.441a2.908,2.908,0,0,1,.145-.934,2.139,2.139,0,0,1,.422-.744,1.943,1.943,0,0,1,.684-.492,2.282,2.282,0,0,1,.927-.179,2.308,2.308,0,0,1,.934.179,1.96,1.96,0,0,1,.689.492,2.123,2.123,0,0,1,.424.744,2.911,2.911,0,0,1,.145.934v.09a2.906,2.906,0,0,1-.145.936,2.126,2.126,0,0,1-.424.742,1.947,1.947,0,0,1-.684.49,2.3,2.3,0,0,1-.929.177,2.317,2.317,0,0,1-.932-.177,1.942,1.942,0,0,1-.686-.49,2.123,2.123,0,0,1-.424-.742,2.9,2.9,0,0,1-.145-.936Zm1.232.09a2.61,2.61,0,0,0,.051.529,1.3,1.3,0,0,0,.164.428.85.85,0,0,0,.294.288.865.865,0,0,0,.445.107.848.848,0,0,0,.437-.107.868.868,0,0,0,.3-.288,1.273,1.273,0,0,0,.166-.428,2.61,2.61,0,0,0,.051-.529v-.09a2.535,2.535,0,0,0-.051-.518,1.322,1.322,0,0,0-.166-.431.868.868,0,0,0-.3-.294.854.854,0,0,0-.443-.109.834.834,0,0,0-.437.109.857.857,0,0,0-.294.294,1.351,1.351,0,0,0-.164.431,2.535,2.535,0,0,0-.051.518Zm5.96-2.353.038.516a1.636,1.636,0,0,1,.561-.441,1.737,1.737,0,0,1,.765-.16,1.553,1.553,0,0,1,.731.166,1.119,1.119,0,0,1,.492.537,1.635,1.635,0,0,1,.569-.516,1.677,1.677,0,0,1,.816-.188,1.886,1.886,0,0,1,.612.094,1.125,1.125,0,0,1,.469.3,1.4,1.4,0,0,1,.3.544,2.787,2.787,0,0,1,.1.821v2.937H-881.5v-2.937a1.231,1.231,0,0,0-.049-.379.537.537,0,0,0-.139-.232.487.487,0,0,0-.217-.115,1.2,1.2,0,0,0-.29-.032.777.777,0,0,0-.478.143.877.877,0,0,0-.29.386c0,.014,0,.03,0,.047s0,.033,0,.047v3.074h-1.232v-2.929a1.289,1.289,0,0,0-.047-.379.541.541,0,0,0-.136-.234.494.494,0,0,0-.219-.119,1.153,1.153,0,0,0-.292-.034.864.864,0,0,0-.46.115.831.831,0,0,0-.3.32v3.261h-1.232V-58.5Z" transform="translate(1034.828 99.797)" fill="#202020"/></g></g></svg>